<?xml version="1.0" encoding="utf-8"?>
<!-- Generator: Adobe Illustrator 22.0.1, SVG Export Plug-In . SVG Version: 6.00 Build 0)  -->
<svg version="1.1" id="Layer_1" xmlns="http://www.w3.org/2000/svg" xmlns:xlink="http://www.w3.org/1999/xlink" x="0px" y="0px"
	 viewBox="0 0 500 500" style="enable-background:new 0 0 500 500;" xml:space="preserve">
<style type="text/css">
	.st0{fill:#FFFFFF;}
</style>
<g>
	<g>
		<polygon class="st0" points="107,245.7 119.5,245.7 119.5,192 184.4,192 184.4,245.7 196.9,245.7 196.9,192 267.4,192 
			267.4,180.5 17.2,180.5 17.2,192 107,192 		"/>
		<path class="st0" d="M142.3,152.6c56.9,0,109.1-16.6,109.1-52.5s-52.2-52.5-109.1-52.5S33.2,64.2,33.2,100.1
			S85.4,152.6,142.3,152.6z M142.3,59.2c49.2,0,96.4,13.6,96.4,40.9c0,27.3-47.1,40.9-96.4,40.9s-96.4-13.6-96.4-40.9
			C45.9,72.8,93.1,59.2,142.3,59.2z"/>
		<polygon class="st0" points="264.6,411.6 463.6,411.6 463.6,361 251.6,361 251.6,372.1 451.1,372.1 451.1,400.9 252.1,400.9 
			252.1,452.4 469.2,452.4 469.2,441.3 264.6,441.3 		"/>
		<rect x="232.6" y="320.3" class="st0" width="250.2" height="11.1"/>
	</g>
	<path class="st0" d="M471.7,284.8l-109.3-49.7c5.4-8,10.1-17.1,13.8-27.4l-11.3-4.1c-26.4,73.3-110.4,80-114.7,80.3l-201-2.9v-55.7
		h-12v67.6l213.1,3.1l0.2,0l0.2,0c0.8,0,64.9-3.9,104.3-51l111.7,50.9L471.7,284.8z"/>
</g>
</svg>
